<?xml version="1.0" standalone="no"?>
<!DOCTYPE svg PUBLIC "-//W3C//DTD SVG 20010904//EN"
 "http://www.w3.org/TR/2001/REC-SVG-20010904/DTD/svg10.dtd">
<svg version="1.0" xmlns="http://www.w3.org/2000/svg"
 width="2138.000000pt" height="2138.000000pt" viewBox="0 0 2138.000000 2138.000000"
 preserveAspectRatio="xMidYMid meet">
<metadata>
Created by potrace 1.14, written by Peter Selinger 2001-2017
</metadata>
<g transform="translate(0.000000,2138.000000) scale(0.100000,-0.100000)"
fill="#000000" stroke="none">
<path d="M5055 21354 c-16 -2 -79 -9 -140 -15 -558 -56 -1168 -266 -1660 -571
-803 -499 -1400 -1256 -1695 -2148 -89 -269 -145 -521 -182 -820 -19 -155 -19
-14065 0 -14220 37 -299 93 -551 182 -820 397 -1202 1338 -2143 2540 -2540
269 -89 521 -145 820 -182 85 -11 1429 -13 7045 -13 l6940 0 105 27 c255 65
448 174 631 357 183 184 293 377 357 631 25 97 27 121 27 310 0 166 -4 220
-19 285 -96 411 -350 737 -714 919 -156 78 -381 136 -529 136 l-63 0 0 1329 0
1328 93 7 c325 24 617 157 846 385 200 198 334 459 376 727 14 89 15 796 13
6939 l-3 6840 -27 101 c-132 494 -487 850 -978 981 l-105 28 -6915 1 c-3803 1
-6928 -1 -6945 -2z m6785 -2690 c895 -82 1738 -380 2486 -880 626 -418 1184
-1000 1577 -1643 435 -711 684 -1465 769 -2326 17 -172 17 -749 0 -920 -114
-1133 -518 -2106 -1232 -2965 -133 -161 -489 -516 -649 -650 -892 -740 -1919
-1156 -3071 -1240 -177 -13 -529 -13 -722 1 -2138 147 -3984 1566 -4678 3596
-332 970 -376 2002 -129 3002 183 741 527 1439 1003 2035 273 342 621 681 962
937 852 642 1848 1006 2924 1069 188 11 551 4 760 -16z m4180 -14644 l0 -1330
-5407 3 c-5022 3 -5414 4 -5489 20 -554 115 -964 527 -1070 1074 -24 121 -24
348 0 468 52 266 165 488 344 676 213 224 482 364 785 408 35 5 2387 9 5450
10 l5387 1 0 -1330z"/>
<path d="M11234 17330 c-454 -227 -887 -1166 -1088 -2360 -51 -301 -106 -769
-106 -902 l0 -48 1315 0 1315 0 0 28 c0 58 -32 386 -55 570 -66 515 -165 965
-310 1397 -179 538 -382 913 -624 1156 -94 94 -130 123 -190 153 -98 48 -170
50 -257 6z"/>
<path d="M9143 16697 c-805 -541 -1378 -1329 -1642 -2262 -28 -99 -91 -380
-91 -405 0 -7 222 -10 653 -10 l652 0 18 228 c64 847 229 1662 473 2335 36 99
64 183 62 187 -2 5 -58 -28 -125 -73z"/>
<path d="M13445 16763 c283 -695 492 -1696 551 -2635 l7 -108 653 0 c360 0
654 3 654 7 0 4 -14 74 -31 157 -193 944 -734 1793 -1514 2379 -113 85 -309
217 -321 217 -4 0 -3 -8 1 -17z"/>
<path d="M7410 12688 c0 -30 61 -307 91 -410 233 -826 699 -1528 1369 -2063
124 -99 393 -280 397 -268 2 6 -16 64 -40 129 -266 717 -452 1645 -503 2512
l-7 112 -654 0 c-516 0 -653 -3 -653 -12z"/>
<path d="M10050 12668 c0 -122 59 -645 101 -893 169 -1013 500 -1847 888
-2236 151 -152 262 -205 374 -180 73 16 137 56 244 150 353 314 675 1040 863
1946 74 360 160 1001 160 1203 l0 42 -1315 0 -1315 0 0 -32z"/>
<path d="M13996 12588 c-40 -659 -161 -1384 -330 -1980 -51 -181 -156 -496
-204 -615 -12 -29 -18 -53 -13 -53 14 0 215 135 325 218 275 208 571 504 779
779 293 388 517 834 652 1299 37 127 105 422 105 454 0 6 -244 10 -654 10
l-653 0 -7 -112z"/>
</g>
</svg>
