<svg version="1" xmlns="http://www.w3.org/2000/svg" width="682.667" height="682.667" viewBox="0 0 512.000000 512.000000"><path d="M225.2 1.1c-5.9.7-12.4 1.8-14.7 2.3-.5.1-2.6.6-4.5 1-10.5 2.3-33.5 10.3-39.5 13.8-1.1.6-5.1 2.8-9 4.9C131.6 37 106.1 62 90.2 89c-9.4 15.9-18.1 37.5-20.8 51.3-.2 1-.5 2.6-.8 3.5-.3.9-.7 3-1 4.7-3.6 22.6-3.8 44.6-.6 63.5.5 3 1.2 7.1 1.5 9 2.2 12.9 10.3 39.9 17.8 58.5 6.5 16.3 18.9 42.3 27.3 57.2 1.3 2.4 3.6 6.4 5.1 9.1 12.4 22.2 34.3 54.6 53.7 79.6 10.4 13.5 16.8 21.1 32.1 38.2 4.9 5.5 13.5 15.4 19 22 5.4 6.5 10.6 12.6 11.5 13.5.8.9 3.5 4.2 6 7.4l4.5 5.7 3.9-4.3c2.1-2.4 5.7-6.6 8-9.2 2.2-2.7 5-5.9 6.1-7.1 7.8-8.8 11.1-12.4 20.4-22.5 5.8-6.3 12.3-13.3 14.5-15.5 8-8.4 24.7-28.6 35.2-42.7 42.9-56.9 74.7-120.8 86.3-173.7 3.6-16.1 5-24.5 5.8-35.6 1.3-17 .6-39.2-1.7-50.3-.5-2.7-1.2-6-1.4-7.4-.2-1.4-1.4-6.2-2.6-10.5C403 72.9 356.7 25.5 296.8 7.5 289 5.1 287 4.7 277 2.9c-3-.5-6.6-1.2-8-1.5-4.1-.9-37-1.1-43.8-.3zm35.8 99.7c10.6 2.4 15.6 4.2 24 8.9 32.1 17.6 48.6 55 40 90.9-7.4 31.3-30.7 54.1-63.4 62.1-5.5 1.3-26.7 1.1-33.3-.4-37.4-8.6-64.4-42.2-64.4-80.3 0-22.9 10.2-46.6 26-60.5 1.9-1.6 3.9-3.5 4.5-4 6.9-6.7 25.6-15.3 37.6-17.1 1.9-.3 3.6-.7 3.7-.8.7-.6 21.5.4 25.3 1.2z"/></svg>